<svg width="26" height="26" viewBox="0 0 26 26" fill="none" xmlns="http://www.w3.org/2000/svg">
<g id="Group 18072">
<circle id="Ellipse 137" cx="13" cy="13" r="13" fill="white"/>
<g id="Group">
<path id="Vector" d="M17.9709 7.28859L17.9709 7.28859L17.969 7.28641C17.5675 6.83279 16.9041 6.75812 16.4356 7.09539L16.4351 7.09572C15.9371 7.45316 15.7681 8.11666 16.0467 8.66837L16.0481 8.6711C16.1099 8.79596 16.21 8.92301 16.3295 9.04248L16.3313 9.04426C17.7678 10.4982 18.3446 12.2735 17.8342 14.3294L17.8341 14.3295C17.3467 16.2894 16.0917 17.5916 14.2445 18.1773L14.244 18.1775C12.4433 18.7457 10.7473 18.3827 9.29391 17.1611C8.0411 16.1106 7.39949 14.6968 7.37744 13.0317C7.35844 11.7029 7.80427 10.528 8.62337 9.5252C8.69464 9.43739 8.7743 9.36624 8.83168 9.31544C8.8367 9.31099 8.84156 9.30669 8.84627 9.30253C8.90262 9.25268 8.93767 9.22167 8.96801 9.1882L8.96799 9.18818L8.97099 9.18495C9.30076 8.82898 9.38908 8.42543 9.24514 7.95198C9.09948 7.48526 8.79135 7.22026 8.32757 7.12616C7.98897 7.05821 7.68274 7.14281 7.38094 7.38516L7.37973 7.38612C6.77752 7.8659 6.35491 8.51596 5.96094 9.25146C5.29893 10.4885 5.00048 11.824 5.04799 13.2448L5.048 13.2453C5.10389 14.9779 5.65234 16.5167 6.68691 17.8675C7.66914 19.1469 8.89553 20.0439 10.3794 20.4968L10.3797 20.4969C12.912 21.2721 15.2522 20.8673 17.3721 19.2076L17.3723 19.2075C18.7443 18.1347 19.6462 16.7092 20.0941 14.9676L20.0945 14.9658C20.2628 14.3235 20.336 13.6622 20.3391 12.9821C20.3075 10.8173 19.5663 8.97535 18.1077 7.44387L18.3973 7.168L18.1085 7.4447C18.0771 7.41197 18.0258 7.35224 17.9948 7.31625C17.9834 7.30291 17.9747 7.29283 17.9709 7.28859Z" fill="#F06721" stroke="white" stroke-width="0.8"/>
<path id="Vector_2" d="M11.1115 10.6564C11.1144 11.4968 11.7262 12.1935 12.5224 12.273C13.3479 12.3585 14.0855 11.8024 14.2495 10.9651C14.2729 10.8459 14.2758 10.7237 14.2758 10.6014M11.1115 10.6564C11.1057 8.39514 11.1057 7.60051 11.1115 5.33921C11.1115 4.73722 11.3837 4.26968 11.8726 3.9641C12.3819 3.64324 12.9264 3.63102 13.4474 3.93049C13.9802 4.23607 14.267 4.72194 14.27 5.36366M11.1115 10.6564L11.5115 10.6554C11.5115 10.6554 11.5115 10.6553 11.5115 10.6553C11.5139 11.3043 11.9834 11.8172 12.5621 11.8749L12.5637 11.8751C13.1758 11.9385 13.7313 11.5298 13.8569 10.8882L13.857 10.8879C13.8723 10.8101 13.8758 10.7218 13.8758 10.6025M11.1115 10.6564L11.5115 10.655L13.8758 10.6025M14.27 5.36366C14.2718 6.08143 14.2713 6.50107 14.2707 7.00316C14.2703 7.28769 14.27 7.5987 14.27 8.00546V8.00552C14.27 9.11473 14.27 9.49219 14.2758 10.6014M14.27 5.36366L13.87 5.36548C13.87 5.36536 13.87 5.36524 13.87 5.36512M14.27 5.36366L13.87 5.3647C13.87 5.36484 13.87 5.36498 13.87 5.36512M14.2758 10.6014L13.8758 10.6035C13.8758 10.6032 13.8758 10.6028 13.8758 10.6025M14.2758 10.6014H13.8758C13.8758 10.6018 13.8758 10.6021 13.8758 10.6025M13.8758 10.6025C13.87 9.49303 13.87 9.11466 13.87 8.00546C13.87 7.59767 13.8703 7.28635 13.8707 7.00178C13.8713 6.50037 13.8718 6.08197 13.87 5.36512M13.8758 10.6025L11.5115 5.34025L11.5115 5.33921C11.5115 4.87817 11.7101 4.5374 12.0846 4.30329L12.0858 4.30255L12.0858 4.30255C12.4705 4.0602 12.8562 4.05207 13.2481 4.27729L13.2484 4.27746C13.6556 4.51105 13.8676 4.86432 13.87 5.36512" fill="#F06721" stroke="white" stroke-width="0.8"/>
</g>
</g>
</svg>
