<svg width="20" height="20" viewBox="0 0 20 20" fill="none" xmlns="http://www.w3.org/2000/svg">
<g id="add-circle-svgrepo-com 1">
<path id="Vector" fill-rule="evenodd" clip-rule="evenodd" d="M10.0155 17.7093C14.3878 17.7093 17.9322 14.1649 17.9322 9.79267C17.9322 5.42042 14.3878 1.87601 10.0155 1.87601C5.64329 1.87601 2.09888 5.42042 2.09888 9.79267C2.09888 14.1649 5.64329 17.7093 10.0155 17.7093ZM10.6093 7.41767C10.6093 7.08976 10.3435 6.82392 10.0155 6.82392C9.68763 6.82392 9.42179 7.08976 9.42179 7.41767V9.19892H7.64054C7.31263 9.19892 7.04679 9.46477 7.04679 9.79267C7.04679 10.1206 7.31263 10.3864 7.64054 10.3864H9.42179V12.1677C9.42179 12.4956 9.68763 12.7614 10.0155 12.7614C10.3435 12.7614 10.6093 12.4956 10.6093 12.1677V10.3864H12.3905C12.7185 10.3864 12.9843 10.1206 12.9843 9.79267C12.9843 9.46477 12.7185 9.19892 12.3905 9.19892H10.6093V7.41767Z" fill="white"/>
</g>
</svg>
