<svg width="18" height="18" viewBox="0 0 18 18" fill="none" xmlns="http://www.w3.org/2000/svg">
<g id="files-f-svgrepo-com 1">
<path id="Vector" d="M11.25 4.5H7.5C7.10218 4.5 6.72064 4.65804 6.43934 4.93934C6.15804 5.22064 6 5.60217 6 6V12.75H3.75C3.35218 12.75 2.97064 12.592 2.68934 12.3107C2.40804 12.0294 2.25 11.6478 2.25 11.25V3C2.25 2.60218 2.40804 2.22064 2.68934 1.93934C2.97064 1.65804 3.35218 1.5 3.75 1.5H9.75C10.1478 1.5 10.5294 1.65804 10.8107 1.93934C11.092 2.22064 11.25 2.60218 11.25 3V4.5ZM8.25 5.25H13.5L15.75 7.5V15C15.75 15.3978 15.592 15.7794 15.3107 16.0607C15.0294 16.342 14.6478 16.5 14.25 16.5H8.25C7.85218 16.5 7.47064 16.342 7.18934 16.0607C6.90804 15.7794 6.75 15.3978 6.75 15V6.75C6.75 6.35217 6.90804 5.97064 7.18934 5.68934C7.47064 5.40803 7.85218 5.25 8.25 5.25Z" fill="white"/>
</g>
</svg>
