<svg width="24" height="24" viewBox="0 0 24 24" fill="none" xmlns="http://www.w3.org/2000/svg">
<g id="money-insert-svgrepo-com 1">
<path id="Vector" d="M12 21V15M12 21L9.5 18.5M12 21L14.5 18.5M5.82333 14.9996C6.2383 14.6332 6.5 14.0972 6.5 13.5C6.5 12.3954 5.60457 11.5 4.5 11.5C3.90285 11.5 3.36683 11.7617 3.00037 12.1767M5.82333 14.9996C5.94144 15 6.06676 15 6.2 15H8M5.82333 14.9996C4.94852 14.9969 4.46895 14.9741 4.09202 14.782C3.71569 14.5903 3.40973 14.2843 3.21799 13.908C3.02593 13.531 3.00308 13.0515 3.00037 12.1767M3.00037 12.1767C3 12.0586 3 11.9332 3 11.8V6.2C3 6.0668 3 5.9414 3.00037 5.8233M3.00037 5.8233C3.36683 6.2383 3.90285 6.5 4.5 6.5C5.60457 6.5 6.5 5.6046 6.5 4.5C6.5 3.9029 6.2383 3.3668 5.82333 3.0004M3.00037 5.8233C3.00308 4.9485 3.02593 4.4689 3.21799 4.092C3.40973 3.7157 3.71569 3.4097 4.09202 3.218C4.46895 3.0259 4.94852 3.0031 5.82333 3.0004M5.82333 3.0004C5.94144 3 6.06676 3 6.2 3H17.8C17.9332 3 18.0586 3 18.1767 3.0004M18.1767 3.0004C17.7617 3.3668 17.5 3.9029 17.5 4.5C17.5 5.6046 18.3954 6.5 19.5 6.5C20.0973 6.5 20.6335 6.2381 21 5.8229M18.1767 3.0004C19.0515 3.0031 19.5311 3.0259 19.908 3.218C20.2843 3.4097 20.5903 3.7157 20.782 4.092C20.974 4.4689 20.9973 4.9484 21 5.8229M21 5.8229C21.0004 5.9411 21 6.0666 21 6.2V11.8C21 11.9332 21 12.0586 20.9996 12.1767M20.9996 12.1767C20.6332 11.7617 20.0971 11.5 19.5 11.5C18.3954 11.5 17.5 12.3954 17.5 13.5C17.5 14.0972 17.7617 14.6332 18.1767 14.9996M20.9996 12.1767C20.9969 13.0515 20.9741 13.531 20.782 13.908C20.5903 14.2843 20.2843 14.5903 19.908 14.782C19.5311 14.9741 19.0515 14.9969 18.1767 14.9996M18.1767 14.9996C18.0586 15 17.9332 15 17.8 15H16M14 9C14 7.8954 13.1046 7 12 7C10.8954 7 10 7.8954 10 9C10 10.1046 10.8954 11 12 11C13.1046 11 14 10.1046 14 9Z" stroke="#7B2CBF" stroke-width="2" stroke-linecap="round" stroke-linejoin="round"/>
</g>
</svg>
