<svg width="43" height="43" viewBox="0 0 43 43" fill="none" xmlns="http://www.w3.org/2000/svg">
<circle cx="21.5" cy="21.5" r="21.5" fill="#7B2CBF" fill-opacity="0.2"/>
<mask id="mask0_3_14529" style="mask-type:luminance" maskUnits="userSpaceOnUse" x="11" y="11" width="22" height="22">
<path fill-rule="evenodd" clip-rule="evenodd" d="M11 11H32.493V32.4938H11V11Z" fill="white"/>
</mask>
<g mask="url(#mask0_3_14529)">
<path fill-rule="evenodd" clip-rule="evenodd" d="M16.1084 29.675C16.6884 29.675 17.2354 29.895 17.8144 30.128C21.3614 31.768 25.5564 31.022 28.2894 28.29C31.8954 24.682 31.8954 18.813 28.2894 15.207C26.5434 13.461 24.2214 12.5 21.7494 12.5C19.2764 12.5 16.9534 13.462 15.2084 15.208C12.4744 17.94 11.7304 22.135 13.3554 25.648C13.5894 26.227 13.8154 26.791 13.8154 27.377C13.8154 27.962 13.6144 28.551 13.4374 29.071C13.2914 29.499 13.0704 30.145 13.2124 30.287C13.3514 30.431 14.0014 30.204 14.4304 30.057C14.9454 29.881 15.5294 29.679 16.1084 29.675ZM21.7244 32.494C20.1964 32.494 18.6584 32.171 17.2194 31.505C16.7954 31.335 16.3984 31.175 16.1134 31.175C15.7854 31.177 15.3444 31.329 14.9184 31.476C14.0444 31.776 12.9564 32.15 12.1514 31.348C11.3494 30.545 11.7194 29.46 12.0174 28.587C12.1644 28.157 12.3154 27.713 12.3154 27.377C12.3154 27.101 12.1824 26.749 11.9784 26.242C10.1054 22.197 10.9714 17.322 14.1484 14.147C16.1764 12.118 18.8754 11 21.7484 11C24.6214 11 27.3214 12.117 29.3494 14.146C33.5414 18.338 33.5414 25.158 29.3494 29.35C27.2944 31.406 24.5274 32.494 21.7244 32.494Z" fill="#7B2CBF"/>
</g>
<path fill-rule="evenodd" clip-rule="evenodd" d="M25.6963 23.1626C25.1443 23.1626 24.6923 22.7156 24.6923 22.1626C24.6923 21.6096 25.1353 21.1626 25.6873 21.1626H25.6963C26.2483 21.1626 26.6963 21.6096 26.6963 22.1626C26.6963 22.7156 26.2483 23.1626 25.6963 23.1626Z" fill="#7B2CBF"/>
<path fill-rule="evenodd" clip-rule="evenodd" d="M21.6875 23.1626C21.1355 23.1626 20.6835 22.7156 20.6835 22.1626C20.6835 21.6096 21.1255 21.1626 21.6785 21.1626H21.6875C22.2395 21.1626 22.6875 21.6096 22.6875 22.1626C22.6875 22.7156 22.2395 23.1626 21.6875 23.1626Z" fill="#7B2CBF"/>
<path fill-rule="evenodd" clip-rule="evenodd" d="M17.6783 23.1626C17.1263 23.1626 16.6743 22.7156 16.6743 22.1626C16.6743 21.6096 17.1173 21.1626 17.6693 21.1626H17.6783C18.2303 21.1626 18.6783 21.6096 18.6783 22.1626C18.6783 22.7156 18.2303 23.1626 17.6783 23.1626Z" fill="#7B2CBF"/>
</svg>
