<svg width="17" height="17" viewBox="0 0 17 17" fill="none" xmlns="http://www.w3.org/2000/svg">
<path id="Vector" d="M7.16755 2.78381H2.76216C2.2948 2.78381 1.84659 2.96947 1.51612 3.29994C1.18566 3.63041 1 4.07862 1 4.54597V14.2378C1 14.7052 1.18566 15.1534 1.51612 15.4839C1.84659 15.8143 2.2948 16 2.76216 16H12.454C12.9214 16 13.3696 15.8143 13.7001 15.4839C14.0305 15.1534 14.2162 14.7052 14.2162 14.2378V9.83245L7.16755 2.78381ZM12.9703 1.53797C13.1329 1.36966 13.3273 1.23542 13.5423 1.14306C13.7573 1.05071 13.9886 1.0021 14.2225 1.00007C14.4565 0.998033 14.6885 1.04262 14.9051 1.13122C15.1217 1.21982 15.3184 1.35067 15.4839 1.51612C15.6493 1.68158 15.7802 1.87833 15.8688 2.09489C15.9574 2.31145 16.002 2.54349 15.9999 2.77747C15.9979 3.01145 15.9493 3.24268 15.8569 3.45767C15.7646 3.67266 15.6303 3.8671 15.462 4.02966L7.89709 11.5946H5.4054V9.10291L12.9703 1.53797Z" stroke="#D3D3D3" stroke-width="2" stroke-linecap="round" stroke-linejoin="round"/>
</svg>
