<svg width="24" height="24" viewBox="0 0 24 24" fill="none" xmlns="http://www.w3.org/2000/svg">
<g id="chart-simple-horizontal-svgrepo-com 1">
<path id="Vector" d="M3 19.4C3 19.9601 3 20.2401 3.14532 20.454C3.27316 20.6421 3.47713 20.7951 3.72801 20.891C4.01323 21 4.3866 21 5.13333 21H16.8667C17.6135 21 17.9868 21 18.272 20.891C18.5229 20.7951 18.7268 20.6421 18.8547 20.454C19 20.2401 19 19.9601 19 19.4V18.6C19 18.0399 19 17.7599 18.8547 17.546C18.7268 17.3579 18.5229 17.2049 18.272 17.109C17.9868 17 17.6135 17 16.8667 17H5.13333C4.3866 17 4.01323 17 3.72801 17.109C3.47713 17.2049 3.27316 17.3579 3.14532 17.546C3 17.7599 3 18.0399 3 18.6V19.4Z" stroke="white" stroke-linecap="round" stroke-linejoin="round"/>
<path id="Vector_2" d="M3 12.4C3 12.9601 3 13.2401 3.0666 13.454C3.1252 13.6422 3.21869 13.7951 3.33367 13.891C3.4644 14 3.63552 14 3.97778 14H13.0222C13.3645 14 13.5356 14 13.6663 13.891C13.7813 13.7951 13.8748 13.6422 13.9334 13.454C14 13.2401 14 12.9601 14 12.4V11.6C14 11.0399 14 10.7599 13.9334 10.546C13.8748 10.3578 13.7813 10.2049 13.6663 10.109C13.5356 10 13.3645 10 13.0222 10H3.97778C3.63552 10 3.4644 10 3.33367 10.109C3.21869 10.2049 3.1252 10.3578 3.0666 10.546C3 10.7599 3 11.0399 3 11.6V12.4Z" stroke="white" stroke-linecap="round" stroke-linejoin="round"/>
<path id="Vector_3" d="M3 5.4C3 5.9601 3 6.2401 3.25885 6.454C3.48657 6.6422 3.84989 6.7951 4.29677 6.891C4.80481 7 5.46988 7 6.8 7H18.2C19.5301 7 20.1952 7 20.7033 6.891C21.1502 6.7951 21.5134 6.6422 21.7411 6.454C22 6.2401 22 5.9601 22 5.4V4.6C22 4.0399 22 3.7599 21.7411 3.546C21.5134 3.3578 21.1502 3.2049 20.7033 3.109C20.1952 3 19.5301 3 18.2 3H6.8C5.46988 3 4.80481 3 4.29677 3.109C3.84989 3.2049 3.48657 3.3578 3.25885 3.546C3 3.7599 3 4.0399 3 4.6V5.4Z" stroke="white" stroke-linecap="round" stroke-linejoin="round"/>
</g>
</svg>
