<svg width="57" height="57" viewBox="0 0 57 57" fill="none" xmlns="http://www.w3.org/2000/svg">
<circle cx="28.5" cy="28.5003" r="21.5" transform="rotate(-20 28.5 28.5003)" fill="#7B2CBF" fill-opacity="0.2"/>
<path d="M28.5 38.0832C33.7928 38.0832 38.0834 33.7926 38.0834 28.4998C38.0834 23.2071 33.7928 18.9165 28.5 18.9165C23.2073 18.9165 18.9167 23.2071 18.9167 28.4998C18.9167 33.7926 23.2073 38.0832 28.5 38.0832Z" stroke="#7B2CBF" stroke-width="1.5" stroke-linecap="round" stroke-linejoin="round"/>
<path d="M24.6667 19.875H25.625C23.7563 25.4717 23.7563 31.5283 25.625 37.125H24.6667" stroke="#7B2CBF" stroke-width="1.5" stroke-linecap="round" stroke-linejoin="round"/>
<path d="M31.375 19.875C33.2438 25.4717 33.2438 31.5283 31.375 37.125" stroke="#7B2CBF" stroke-width="1.5" stroke-linecap="round" stroke-linejoin="round"/>
<path d="M19.875 32.3333V31.375C25.4717 33.2438 31.5283 33.2438 37.125 31.375V32.3333" stroke="#7B2CBF" stroke-width="1.5" stroke-linecap="round" stroke-linejoin="round"/>
<path d="M19.875 25.6252C25.4717 23.7564 31.5283 23.7564 37.125 25.6252" stroke="#7B2CBF" stroke-width="1.5" stroke-linecap="round" stroke-linejoin="round"/>
</svg>
