<svg width="18" height="14" viewBox="0 0 18 14" fill="none" xmlns="http://www.w3.org/2000/svg">
<path id="message_1_fill" d="M9 14C8.77797 14.0002 8.56088 13.9432 8.3763 13.8362L6.03 12.4791H2.7C1.98392 12.4791 1.29716 12.2326 0.790812 11.7938C0.284463 11.355 0 10.7598 0 10.1393L0 2.33983C0 1.71927 0.284463 1.12412 0.790812 0.685321C1.29716 0.246517 1.98392 0 2.7 0L15.3 0C16.0161 0 16.7028 0.246517 17.2092 0.685321C17.7155 1.12412 18 1.71927 18 2.33983V10.1393C18 10.7598 17.7155 11.355 17.2092 11.7938C16.7028 12.2326 16.0161 12.4791 15.3 12.4791H11.97L9.6219 13.8362C9.43776 13.9427 9.2214 13.9997 9 14ZM12.15 5.45961C11.883 5.45961 11.622 5.52822 11.4 5.65678C11.178 5.78533 11.0049 5.96804 10.9028 6.18182C10.8006 6.39559 10.7738 6.63082 10.8259 6.85777C10.878 7.08471 11.0066 7.29317 11.1954 7.45678C11.3842 7.6204 11.6248 7.73182 11.8866 7.77696C12.1485 7.8221 12.4199 7.79894 12.6666 7.71039C12.9133 7.62184 13.1241 7.47189 13.2725 7.2795C13.4208 7.0871 13.5 6.86091 13.5 6.62953C13.5 6.31924 13.3578 6.02167 13.1046 5.80227C12.8514 5.58287 12.508 5.45961 12.15 5.45961ZM5.85 5.45961C5.58299 5.45961 5.32199 5.52822 5.09998 5.65678C4.87797 5.78533 4.70494 5.96804 4.60276 6.18182C4.50058 6.39559 4.47385 6.63082 4.52594 6.85777C4.57803 7.08471 4.7066 7.29317 4.89541 7.45678C5.08421 7.6204 5.32475 7.73182 5.58663 7.77696C5.8485 7.8221 6.11994 7.79894 6.36662 7.71039C6.6133 7.62184 6.82414 7.47189 6.97248 7.2795C7.12082 7.0871 7.2 6.86091 7.2 6.62953C7.2 6.31924 7.05777 6.02167 6.80459 5.80227C6.55142 5.58287 6.20804 5.45961 5.85 5.45961Z" fill="#7B2CBF"/>
</svg>
