<svg width="91" height="90" viewBox="0 0 91 90" fill="none" xmlns="http://www.w3.org/2000/svg">
<g id="Frame 34615">
<g id="Group">
<g id="user">
<g id="Group_2">
<g id="Vector">
<path d="M71 86V79.1111C71 75.457 69.4196 71.9526 66.6066 69.3687C63.7936 66.7849 59.9782 65.3333 56 65.3333H26C22.0218 65.3333 18.2064 66.7849 15.3934 69.3687C12.5804 71.9526 11 75.457 11 79.1111V86" fill="#263238"/>
<path d="M71 86V79.1111C71 75.457 69.4196 71.9526 66.6066 69.3687C63.7936 66.7849 59.9782 65.3333 56 65.3333H26C22.0218 65.3333 18.2064 66.7849 15.3934 69.3687C12.5804 71.9526 11 75.457 11 79.1111V86" stroke="#263238" stroke-width="2" stroke-linecap="round" stroke-linejoin="round"/>
</g>
<path id="Vector_2" d="M41 51.5556C49.2843 51.5556 56 45.387 56 37.7778C56 30.1685 49.2843 24 41 24C32.7157 24 26 30.1685 26 37.7778C26 45.387 32.7157 51.5556 41 51.5556Z" fill="#263238" stroke="#263238" stroke-width="2" stroke-linecap="round" stroke-linejoin="round"/>
</g>
</g>
<g id="Group_3">
<g id="Vector_3">
<path d="M37.1633 52.5052C34.8891 51.8991 32.7146 50.7443 30.8501 49.0317C24.7449 43.4239 24.3596 33.9371 29.9506 27.8501C35.5416 21.7632 45.0453 21.3596 51.1322 26.9506C57.2191 32.5416 57.6227 42.0453 52.0317 48.1322C50.0841 50.2526 47.6676 51.6727 45.0825 52.4324" fill="white"/>
<path d="M37.1633 52.5052C34.8891 51.8991 32.7146 50.7443 30.8501 49.0317C24.7449 43.4239 24.3596 33.9371 29.9506 27.8501C35.5416 21.7632 45.0453 21.3596 51.1322 26.9506C57.2191 32.5416 57.6227 42.0453 52.0317 48.1322C50.0841 50.2526 47.6676 51.6727 45.0825 52.4324" stroke="#263238" stroke-width="3" stroke-miterlimit="10" stroke-linecap="round" stroke-linejoin="round"/>
</g>
<path id="Vector_4" d="M35.3549 38.3008C35.3797 36.4641 35.5534 34.8508 36.2236 33.312C36.844 31.8973 37.7624 30.7308 39.2516 30.1599C41.6343 29.2416 44.5134 29.8124 46.0522 32.5922C46.6975 33.7588 47.0202 35.0246 47.1691 36.34C47.318 37.5314 47.318 38.7227 47.1691 39.8893C46.9705 41.5025 46.5486 43.0414 45.531 44.3568C44.3644 45.8708 42.8008 46.5161 40.9145 46.392C38.7055 46.2431 37.266 45.0021 36.3477 43.091C35.8016 41.9989 35.5534 40.8324 35.4541 39.6162C35.4045 39.1447 35.3797 38.6234 35.3549 38.3008ZM37.7624 38.1022C37.7872 39.2439 37.8617 40.4105 38.2091 41.5025C38.4573 42.2968 38.8544 43.0414 39.4998 43.5874C40.6167 44.5306 42.7015 44.5057 43.7688 42.8925C44.4637 41.85 44.7367 40.6587 44.836 39.4425C44.9353 38.3008 44.9353 37.1591 44.7367 36.0174C44.5878 35.0246 44.3148 34.0814 43.7191 33.2624C42.8256 31.9966 41.1627 31.5994 39.8472 32.3689C39.053 32.8404 38.5814 33.585 38.2836 34.4289C37.8617 35.6203 37.7624 36.8612 37.7624 38.1022Z" fill="#F06721"/>
</g>
</g>
</g>
</svg>
