<svg width="91" height="96" viewBox="0 0 91 96" fill="none" xmlns="http://www.w3.org/2000/svg">
<g id="Frame 34615">
<g id="Group">
<g id="Group_2">
<path id="Vector" d="M60.8127 17.4794C56.4941 13.7565 51.0337 11.3241 45.0273 10.7781" stroke="#1A1D1F" stroke-width="3" stroke-miterlimit="10" stroke-linecap="round" stroke-linejoin="round"/>
<path id="Vector_2" d="M20.3567 68.8813C16.4351 68.8813 13.2582 72.0582 13.2582 75.9797V82.4825H7.5V75.9797C7.5 72.4057 10.1557 69.4273 13.5808 68.9558C13.9035 68.9061 14.251 68.8813 14.5985 68.8813H20.3567Z" fill="#E5E2FF" fill-opacity="0.5"/>
<path id="Vector_3" d="M45.0275 10.8028C30.632 12.1183 19.3638 24.2055 19.3638 38.9485V68.9059H14.5984C14.2509 68.9059 13.9035 68.9308 13.5808 68.9804V38.9485C13.5808 23.3368 26.2389 10.7035 41.8257 10.7035H42.3966C43.2901 10.6787 44.1588 10.7035 45.0275 10.8028Z" fill="#E5E2FF" fill-opacity="0.5"/>
<path id="Vector_4" d="M13.2582 82.507H7.5V76.0042C7.5 72.4301 10.1557 69.4517 13.5808 68.9802C13.9035 68.9305 14.251 68.9057 14.5985 68.9057H20.3567" stroke="#1A1D1F" stroke-width="2.48198" stroke-miterlimit="10" stroke-linecap="round" stroke-linejoin="round"/>
<path id="Vector_5" d="M76.4497 43.8809V68.8816" stroke="#1A1D1F" stroke-width="3" stroke-miterlimit="10" stroke-linecap="round" stroke-linejoin="round"/>
<path id="Vector_6" d="M19.3638 68.8808H14.5984C14.2509 68.8808 13.9035 68.9056 13.5808 68.9553V38.9233C13.5808 23.3117 26.2389 10.6784 41.8257 10.6784H42.3966C43.2653 10.6784 44.134 10.728 45.0027 10.8025" stroke="#1A1D1F" stroke-width="3" stroke-miterlimit="10" stroke-linecap="round" stroke-linejoin="round"/>
<path id="Vector_7" d="M20.3566 68.8813H75.4069C79.3285 68.8813 82.5054 72.0582 82.5054 75.9797V82.4825H13.2582" stroke="#1A1D1F" stroke-width="3" stroke-miterlimit="10" stroke-linecap="round" stroke-linejoin="round"/>
<path id="Vector_8" d="M39.0707 10.6787V5.34241C39.0707 3.67948 40.4358 2.31439 42.0987 2.31439H42.1483C43.8113 2.31439 45.1763 3.67948 45.1763 5.34241V10.6787" stroke="#1A1D1F" stroke-width="3" stroke-miterlimit="10" stroke-linecap="round" stroke-linejoin="round"/>
<path id="Vector_9" d="M51.5309 84.5668C51.5309 89.7542 47.3116 93.9735 42.1242 93.9735C36.9369 93.9735 32.7175 89.7542 32.7175 84.5668C32.7175 83.847 32.792 83.1769 32.9409 82.5068H51.3076C51.4565 83.1521 51.5309 83.847 51.5309 84.5668Z" stroke="#1A1D1F" stroke-width="3" stroke-miterlimit="10" stroke-linecap="round" stroke-linejoin="round"/>
<path id="Vector_10" d="M20.2822 43.0928V58.8533" stroke="#1A1D1F" stroke-width="3" stroke-miterlimit="10" stroke-linecap="round" stroke-linejoin="round"/>
<path id="Vector_11" d="M20.2822 36.094V37.7817" stroke="#1A1D1F" stroke-width="3" stroke-miterlimit="10" stroke-linecap="round" stroke-linejoin="round"/>
</g>
<g id="Group_3">
<path id="Vector_12" d="M63.3698 30.4597C63.3946 28.6231 63.5683 27.0098 64.2384 25.4709C64.8589 24.0562 65.7773 22.8897 67.2665 22.3188C69.6492 21.4005 72.5283 21.9714 74.0671 24.7512C74.7124 25.9177 75.0351 27.1835 75.184 28.499C75.3329 29.6903 75.3329 30.8817 75.184 32.0482C74.9854 33.6615 74.5635 35.2003 73.5459 36.5158C72.3793 38.0298 70.8157 38.6751 68.9294 38.551C66.7204 38.4021 65.2809 37.1611 64.3625 35.2499C63.8165 34.1579 63.5683 32.9913 63.469 31.7752C63.4194 31.3036 63.3946 30.7824 63.3698 30.4597ZM65.7773 30.2612C65.8021 31.4029 65.8766 32.5694 66.224 33.6615C66.4722 34.4557 66.8693 35.2003 67.5147 35.7463C68.6315 36.6895 70.7164 36.6647 71.7837 35.0514C72.4786 34.009 72.7516 32.8176 72.8509 31.6014C72.9502 30.4597 72.9502 29.318 72.7516 28.1763C72.6027 27.1835 72.3297 26.2404 71.734 25.4213C70.8405 24.1555 69.1776 23.7584 67.8621 24.5278C67.0679 24.9994 66.5963 25.744 66.2985 26.5878C65.8765 27.7792 65.7773 29.0202 65.7773 30.2612Z" fill="#F06721"/>
<path id="Vector_13" d="M55.899 36.9377C54.8069 34.8528 54.1864 32.4701 54.1864 29.9385C54.1864 21.6487 60.9126 14.9473 69.1776 14.9473C77.4425 14.9473 84.1687 21.6735 84.1687 29.9385C84.1687 38.2035 77.4425 44.9296 69.1776 44.9296C66.2985 44.9296 63.6179 44.1106 61.3097 42.7207" stroke="#1A1D1F" stroke-width="3" stroke-miterlimit="10" stroke-linecap="round" stroke-linejoin="round"/>
</g>
</g>
</g>
</svg>
