<svg width="24" height="24" viewBox="0 0 24 24" fill="none" xmlns="http://www.w3.org/2000/svg">
<g id="pdf-svgrepo-com 1">
<path id="Vector" d="M4 4C4 3.44772 4.44772 3 5 3H14H14.5858C14.851 3 15.1054 3.10536 15.2929 3.29289L19.7071 7.70711C19.8946 7.89464 20 8.149 20 8.41421V20C20 20.5523 19.5523 21 19 21H5C4.44772 21 4 20.5523 4 20V4Z" stroke="#7B2CBF" stroke-width="2" stroke-linecap="round"/>
<path id="Vector_2" d="M20 8H15V3" stroke="#7B2CBF" stroke-width="2" stroke-linecap="round" stroke-linejoin="round"/>
<path id="Vector_3" d="M11.5 13H11V17H11.5C12.6046 17 13.5 16.1046 13.5 15C13.5 13.8954 12.6046 13 11.5 13Z" stroke="#7B2CBF" stroke-linecap="round" stroke-linejoin="round"/>
<path id="Vector_4" d="M15.5 17V13H17.5" stroke="#7B2CBF" stroke-linecap="round" stroke-linejoin="round"/>
<path id="Vector_5" d="M16 15H17" stroke="#7B2CBF" stroke-linecap="round" stroke-linejoin="round"/>
<path id="Vector_6" d="M7 17V15.5M7 15.5V13H7.75C8.44036 13 9 13.5596 9 14.25C9 14.9404 8.44036 15.5 7.75 15.5H7Z" stroke="#7B2CBF" stroke-linecap="round" stroke-linejoin="round"/>
</g>
</svg>
