<svg width="43" height="43" viewBox="0 0 43 43" fill="none" xmlns="http://www.w3.org/2000/svg">
<circle cx="21.5" cy="21.5" r="21.5" fill="#7B2CBF" fill-opacity="0.2"/>
<path d="M29 31V29C29 27.9391 28.5786 26.9217 27.8284 26.1716C27.0783 25.4214 26.0609 25 25 25H17C15.9391 25 14.9217 25.4214 14.1716 26.1716C13.4214 26.9217 13 27.9391 13 29V31" stroke="#7B2CBF" stroke-width="2" stroke-linecap="round" stroke-linejoin="round"/>
<path d="M21 21C23.2091 21 25 19.2091 25 17C25 14.7909 23.2091 13 21 13C18.7909 13 17 14.7909 17 17C17 19.2091 18.7909 21 21 21Z" stroke="#7B2CBF" stroke-width="2" stroke-linecap="round" stroke-linejoin="round"/>
</svg>
