<svg width="43" height="43" viewBox="0 0 43 43" fill="none" xmlns="http://www.w3.org/2000/svg">
<circle cx="21.5" cy="21.5" r="21.5" fill="#7B2CBF" fill-opacity="0.2"/>
<path d="M21 27V21" stroke="#7B2CBF" stroke-linecap="round"/>
<path d="M21 17C21.5523 17 22 17.4477 22 18C22 18.5523 21.5523 19 21 19C20.4477 19 20 18.5523 20 18C20 17.4477 20.4477 17 21 17Z" fill="#7B2CBF"/>
<path d="M16 13.3378C17.4709 12.487 19.1786 12 21 12C26.5228 12 31 16.4771 31 22C31 27.5228 26.5228 32 21 32C15.4771 32 11 27.5228 11 22C11 20.1786 11.487 18.4709 12.3378 17" stroke="#7B2CBF" stroke-linecap="round"/>
</svg>
