<svg width="28" height="28" viewBox="0 0 28 28" fill="none" xmlns="http://www.w3.org/2000/svg">
<g id="Objects and Tools">
<g id="gearshape">
<g id="Group">
<path id="Vector" d="M12.9809 25H15.0379C15.875 25 16.5298 24.4797 16.7232 23.6784L17.1354 21.8848L17.4051 21.7915L18.97 22.7506C19.6765 23.1918 20.5043 23.0813 21.0984 22.4835L22.5232 21.0707C23.121 20.4657 23.2278 19.6332 22.7866 18.9386L21.811 17.3858L21.9107 17.1345L23.7006 16.7104C24.4937 16.5132 25.0186 15.8539 25.0186 15.0249V13.025C25.0186 12.1978 24.502 11.5348 23.7006 11.3396L21.9273 10.9071L21.8193 10.6392L22.7949 9.08629C23.238 8.39183 23.1293 7.56761 22.5315 6.95426L21.1068 5.5331C20.521 4.94367 19.6931 4.82952 18.9867 5.26606L17.4217 6.22513L17.1354 6.11523L16.7232 4.3216C16.5298 3.51846 15.875 3 15.0379 3H12.9809C12.1436 3 11.4889 3.52211 11.2955 4.3216L10.875 6.11523L10.5887 6.22513L9.03207 5.26606C8.32565 4.83316 7.48946 4.94367 6.90369 5.5331L5.48719 6.95426C4.88946 7.56761 4.77246 8.39183 5.22381 9.08629L6.19119 10.6392L6.09143 10.9071L4.31807 11.3396C3.51311 11.5367 3.00012 12.1978 3.00012 13.025V15.0249C3.00012 15.8539 3.52507 16.5151 4.31807 16.7104L6.10805 17.1345L6.1995 17.3858L5.23212 18.9386C4.78077 19.6332 4.89777 20.4657 5.49551 21.0707L6.912 22.4835C7.50609 23.0813 8.34228 23.1918 9.0487 22.7506L10.6053 21.7915L10.875 21.8848L11.2955 23.6784C11.4889 24.4797 12.1436 25 12.9809 25ZM13.2325 23.163C13.0619 23.163 12.9744 23.0903 12.9458 22.9335L12.3448 20.4356C11.7027 20.2909 11.0865 20.0312 10.5958 19.7173L8.40027 21.0648C8.28044 21.1543 8.15229 21.1358 8.03428 21.0178L6.95295 19.9383C6.84143 19.8268 6.83677 19.707 6.91422 19.5723L8.26725 17.3935C7.98845 16.9093 7.71757 16.3004 7.56266 15.6582L5.06484 15.0673C4.9081 15.0388 4.83531 14.9512 4.83531 14.7806V13.261C4.83531 13.0822 4.89979 13.0046 5.06484 12.9743L7.55435 12.3751C7.7129 11.7015 8.01157 11.0705 8.25063 10.6315L6.90591 8.45266C6.82014 8.30971 6.82298 8.18988 6.9345 8.07005L8.02597 7.00717C8.14398 6.88916 8.2555 6.87253 8.40027 6.96012L10.5773 8.28274C11.037 8.0084 11.7065 7.73305 12.3513 7.56254L12.9458 5.06654C12.9744 4.90981 13.0619 4.83701 13.2325 4.83701H14.7862C14.9568 4.83701 15.0425 4.90981 15.0646 5.06654L15.6758 7.57916C16.3336 7.73954 16.923 8.00577 17.4248 8.29105L19.6047 6.96377C19.7596 6.87618 19.861 6.89098 19.9891 7.01082L21.0704 8.0737C21.1902 8.19353 21.1866 8.31336 21.1009 8.45631L19.7598 10.6315C20.0054 11.0687 20.2975 11.7015 20.4543 12.3715L22.9539 12.9743C23.1106 13.0046 23.1835 13.0822 23.1835 13.261V14.7806C23.1835 14.9512 23.1005 15.0388 22.9539 15.0673L20.446 15.6618C20.291 16.2985 20.0285 16.9147 19.7432 17.3935L21.0907 19.5686C21.17 19.7033 21.1736 19.8231 21.0538 19.9347L19.9808 21.0141C19.8509 21.134 19.7329 21.1488 19.6047 21.0612L17.4183 19.7173C16.9185 20.0312 16.338 20.2836 15.6758 20.4356L15.0646 22.9335C15.0425 23.0903 14.9568 23.163 14.7862 23.163H13.2325ZM14.0085 17.8545C16.1182 17.8545 17.8528 16.1199 17.8528 14C17.8528 11.8986 16.1182 10.1658 14.0085 10.1658C11.8987 10.1658 10.154 11.8986 10.154 14C10.154 16.1134 11.8904 17.8545 14.0085 17.8545ZM14.0085 16.1153C12.8535 16.1153 11.9034 15.1651 11.9034 14C11.9034 12.8534 12.8554 11.9051 14.0085 11.9051C15.145 11.9051 16.0932 12.8571 16.0932 14C16.0932 15.1568 15.145 16.1153 14.0085 16.1153Z" fill="white"/>
</g>
</g>
</g>
</svg>
