<svg width="122" height="48" viewBox="0 0 122 48" fill="none" xmlns="http://www.w3.org/2000/svg">
<g id="logo">
<g id="logo_2">
<g id="Platform=Google, Shape=Original, Colored=True">
<g id="Group">
<path id="Shape" d="M40.011 20.909H24V27.485H33.149C32.9598 28.5251 32.5617 29.5161 31.9787 30.398C31.3956 31.2799 30.6399 32.0344 29.757 32.616V36.881H35.251C36.9247 35.269 38.2409 33.3232 39.1141 31.1698C39.9874 29.0164 40.3982 26.7034 40.32 24.381C40.3207 23.2168 40.2173 22.0548 40.011 20.909V20.909Z" fill="#4285F4"/>
<path id="Shape_2" d="M35.251 36.881L29.757 32.616C28.0429 33.7191 26.0379 34.2843 24 34.239C21.8806 34.2126 19.8228 33.5221 18.1164 32.2647C16.4101 31.0074 15.141 29.2465 14.488 27.23H8.80801V31.63C10.2221 34.4471 12.3919 36.8154 15.0748 38.4701C17.7577 40.1248 20.8479 41.0008 24 41C28.1384 41.1122 32.1633 39.6387 35.251 36.881Z" fill="#34A853"/>
<path id="Shape_3" d="M13.955 24.001C13.9574 22.901 14.1374 21.8086 14.488 20.766V16.366H8.808C7.61897 18.7353 6.99979 21.3495 6.99979 24.0005C6.99979 26.6514 7.61897 29.2657 8.808 31.635L14.488 27.235C14.1375 26.1927 13.9575 25.1006 13.955 24.001Z" fill="#FBBC05"/>
<path id="Shape_4" d="M30.498 16.3L35.374 11.424C32.2965 8.5355 28.2205 6.95011 24 6.99998C20.8484 6.99875 17.7586 7.87393 15.0757 9.52774C12.3929 11.1815 10.2228 13.5488 8.80801 16.365L14.488 20.765C15.141 18.7485 16.4101 16.9876 18.1164 15.7302C19.8228 14.4729 21.8806 13.7824 24 13.756C26.4164 13.716 28.7511 14.6301 30.498 16.3Z" fill="#EA4335"/>
</g>
</g>
<g id="Platform=Facebook, Shape=Original, Colored=True">
<path id="Vector" d="M86 24C86 19.2261 87.8964 14.6477 91.2721 11.2721C94.6477 7.89642 99.2261 6 104 6C108.774 6 113.352 7.89642 116.728 11.2721C120.104 14.6477 122 19.2261 122 24C121.984 28.2551 120.473 32.3692 117.731 35.623C114.989 38.8769 111.191 41.0633 107 41.8L106 41H102L101 41.8C96.8092 41.0633 93.0107 38.8769 90.2687 35.623C87.5267 32.3692 86.0157 28.2551 86 24V24Z" fill="url(#paint0_linear_3_7263)"/>
<path id="Vector_2" d="M111.8 24H107V20.5C107 19.1 107.5 18 109.7 18H112V13.4C110.678 13.1678 109.341 13.0341 108 13C103.9 13 101 15.5 101 20V24H96.5V29H101V41.7C102.98 42.1 105.02 42.1 107 41.7V29H111L111.8 24Z" fill="white"/>
</g>
</g>
</g>
<defs>
<linearGradient id="paint0_linear_3_7263" x1="104" y1="40.7618" x2="104" y2="6" gradientUnits="userSpaceOnUse">
<stop stop-color="#0062E0"/>
<stop offset="1" stop-color="#19AFFF"/>
</linearGradient>
</defs>
</svg>
