<svg width="18" height="18" viewBox="0 0 18 18" fill="none" xmlns="http://www.w3.org/2000/svg">
<g id="Iconly/Bold/Star">
<g id="Star">
<path id="Star_2" d="M13.4389 10.544C13.2447 10.7288 13.1554 10.9961 13.1997 11.2582L13.8664 14.8808C13.9227 15.1879 13.7907 15.4986 13.5289 15.6761C13.2724 15.8601 12.9312 15.8822 12.6514 15.735L9.32966 14.0341C9.21416 13.9737 9.08591 13.9413 8.95466 13.9376H8.75141C8.68091 13.9479 8.61191 13.97 8.54891 14.0039L5.22641 15.7129C5.06216 15.7939 4.87616 15.8226 4.69391 15.7939C4.24991 15.7114 3.95366 15.2961 4.02641 14.858L4.69391 11.2354C4.73816 10.971 4.64891 10.7023 4.45466 10.5145L1.74641 7.93745C1.51991 7.72171 1.44116 7.39774 1.54466 7.10542C1.64516 6.81385 1.90166 6.60105 2.21141 6.55319L5.93891 6.02232C6.22241 5.9936 6.47141 5.82425 6.59891 5.5739L8.24141 2.26788C8.28041 2.19425 8.33066 2.12651 8.39141 2.06908L8.45891 2.01753C8.49416 1.97925 8.53466 1.94759 8.57966 1.92181L8.66141 1.89236L8.78891 1.84082H9.10466C9.38666 1.86954 9.63491 2.03521 9.76466 2.28261L11.4289 5.5739C11.5489 5.81468 11.7822 5.98182 12.0514 6.02232L15.7789 6.55319C16.0939 6.59737 16.3572 6.8109 16.4614 7.10542C16.5597 7.40068 16.4749 7.72466 16.2439 7.93745L13.4389 10.544Z" fill="white"/>
</g>
</g>
</svg>
