<svg width="13" height="14" viewBox="0 0 13 14" fill="none" xmlns="http://www.w3.org/2000/svg">
<g id="Iconly/Bold/Star">
<g id="Star">
<path id="Star_2" d="M9.70585 8.39808C9.56556 8.53155 9.5011 8.72459 9.53306 8.9139L10.0146 11.5302C10.0552 11.752 9.9599 11.9764 9.77085 12.1046C9.5856 12.2375 9.33914 12.2535 9.1371 12.1471L6.73806 10.9187C6.65465 10.8751 6.56202 10.8517 6.46723 10.849H6.32044C6.26952 10.8565 6.21969 10.8724 6.17419 10.8969L3.7746 12.1312C3.65598 12.1897 3.52165 12.2104 3.39002 12.1897C3.06935 12.1301 2.8554 11.8302 2.90794 11.5138L3.39002 8.89742C3.42198 8.70651 3.35752 8.51241 3.21723 8.3768L1.26127 6.51558C1.09769 6.35977 1.04081 6.12579 1.11556 5.91467C1.18815 5.70409 1.3734 5.5504 1.5971 5.51584L4.28919 5.13243C4.49394 5.11169 4.67377 4.98938 4.76585 4.80857L5.9521 2.42089C5.98027 2.36771 6.01656 2.31879 6.06044 2.27731L6.10919 2.24008C6.13465 2.21243 6.1639 2.18957 6.1964 2.17095L6.25544 2.14968L6.34752 2.11246H6.57556C6.77923 2.1332 6.95852 2.25285 7.05223 2.43152L8.25419 4.80857C8.34085 4.98246 8.50931 5.10318 8.70377 5.13243L11.3959 5.51584C11.6234 5.54774 11.8135 5.70196 11.8888 5.91467C11.9597 6.12791 11.8985 6.3619 11.7317 6.51558L9.70585 8.39808Z" fill="#7B2CBF"/>
</g>
</g>
</svg>
