<svg width="18" height="18" viewBox="0 0 18 18" fill="none" xmlns="http://www.w3.org/2000/svg">
<g id="files-f-svgrepo-com 1">
<path id="Vector" d="M7.50057 15.9224C7.50026 16.299 7.58745 16.6697 7.75407 17H1.44032C1.0586 16.999 0.692771 16.8337 0.422854 16.5403C0.152937 16.2469 0.000900639 15.8492 0 15.4342V13.0861C0.00269962 12.049 0.382875 11.0552 1.05746 10.3219C1.73205 9.58852 2.64622 9.17522 3.60023 9.17229H9.82759C9.95943 9.65168 10.1744 10.0993 10.4608 10.4909C9.63311 10.6455 8.88226 11.113 8.34068 11.8107C7.79909 12.5085 7.50156 13.3917 7.50057 14.3047V15.9224ZM6.84009 7.99826C6.11252 7.99826 5.40129 7.76371 4.79633 7.32428C4.19138 6.88485 3.71988 6.26027 3.44145 5.52953C3.16302 4.79878 3.09017 3.99469 3.23211 3.21894C3.37405 2.44318 3.72441 1.73061 4.23888 1.17132C4.75335 0.612031 5.40883 0.231151 6.12242 0.0768439C6.83601 -0.0774633 7.57567 0.00173287 8.24786 0.304417C8.92004 0.607102 9.49457 1.11968 9.89879 1.77733C10.303 2.43499 10.5188 3.20818 10.5188 3.99913C10.5188 5.05976 10.1312 6.07696 9.4413 6.82694C8.75142 7.57692 7.81573 7.99826 6.84009 7.99826ZM18 15.9224C17.9991 16.2079 17.8944 16.4814 17.7087 16.6833C17.523 16.8852 17.2713 16.999 17.0087 17H9.57181C9.30918 16.999 9.05756 16.8852 8.87186 16.6833C8.68615 16.4814 8.58142 16.2079 8.58052 15.9224V14.3047C8.58262 13.5909 8.84439 12.9069 9.30869 12.4022C9.77299 11.8974 10.4021 11.6129 11.0587 11.6106H15.5207C16.1773 11.6129 16.8064 11.8974 17.2707 12.4022C17.735 12.9069 17.9968 13.5909 17.9989 14.3047L18 15.9224ZM15.823 8.04769C15.823 8.59226 15.6745 9.12461 15.3962 9.57741C15.1179 10.0302 14.7223 10.3831 14.2595 10.5915C13.7967 10.7999 13.2875 10.8544 12.7961 10.7482C12.3048 10.642 11.8535 10.3797 11.4993 9.99465C11.1451 9.60958 10.9039 9.11897 10.8061 8.58485C10.7084 8.05074 10.7586 7.49712 10.9503 6.994C11.142 6.49088 11.4666 6.06086 11.8831 5.75831C12.2996 5.45576 12.7893 5.29427 13.2903 5.29427C13.962 5.29427 14.6062 5.58436 15.0812 6.10073C15.5562 6.6171 15.823 7.31744 15.823 8.04769Z" fill="white"/>
</g>
</svg>
